{
  "accessors": [
    {
      "bufferView": 2,
      "componentType": 5126,
      "count": 2301,
      "max": [
        2.9422900676727295,
        3.0368099212646484,
        17.997980117797852
      ],
      "min": [
        -2.8289899826049805,
        -3.5985898971557617,
        -0.07831999659538269
      ],
      "type": "VEC3"
    },
    {
      "bufferView": 2,
      "byteOffset": 27612,
      "componentType": 5126,
      "count": 2301,
      "max": [
        0.9999890923500061,
        1,
        1
      ],
      "min": [
        -0.9999890923500061,
        -1,
        -1
      ],
      "type": "VEC3"
    },
    {
      "bufferView": 3,
      "componentType": 5126,
      "count": 2301,
      "max": [
        1,
        1,
        0.99999010562896729,
        1
      ],
      "min": [
        -0.99999898672103882,
        -1,
        -0.99952757358551025,
        -1
      ],
      "type": "VEC4"
    },
    {
      "bufferView": 1,
      "componentType": 5126,
      "count": 2301,
      "max": [
        0.93431997299194336,
        0.96117997169494629
      ],
      "min": [
        0.066079996526241302,
        0.5655900239944458
      ],
      "type": "VEC2"
    },
    {
      "bufferView": 0,
      "componentType": 5125,
      "count": 4581,
      "max": [
        2300
      ],
      "min": [
        0
      ],
      "type": "SCALAR"
    }
  ],
  "asset": {
    "extras": {
      "author": "VitSh (https://sketchfab.com/VitSh)",
      "license": "CC-BY-4.0 (http://creativecommons.org/licenses/by/4.0/)",
      "source": "https://sketchfab.com/models/bd64c3eb9deb4d52938798ad70bba708",
      "title": "Tower asset fot 'Tower of the Wizard' scene"
    },
    "generator": "Sketchfab-3.18.7",
    "version": "2.0"
  },
  "bufferViews": [
    {
      "buffer": 0,
      "byteLength": 18324,
      "byteOffset": 0,
      "name": "floatBufferViews",
      "target": 34963
    },
    {
      "buffer": 0,
      "byteLength": 18408,
      "byteOffset": 18324,
      "byteStride": 8,
      "name": "floatBufferViews",
      "target": 34962
    },
    {
      "buffer": 0,
      "byteLength": 55224,
      "byteOffset": 36732,
      "byteStride": 12,
      "name": "floatBufferViews",
      "target": 34962
    },
    {
      "buffer": 0,
      "byteLength": 36816,
      "byteOffset": 91956,
      "byteStride": 16,
      "name": "floatBufferViews",
      "target": 34962
    }
  ],
  "buffers": [
    {
      "byteLength": 128772,
      "uri": "scene.bin"
    }
  ],
  "images": [
    {
      "uri": "textures/color_baseColor.png"
    }
  ],
  "materials": [
    {
      "doubleSided": true,
      "emissiveFactor": [
        0,
        0,
        0
      ],
      "name": "color",
      "pbrMetallicRoughness": {
        "baseColorFactor": [
          1,
          1,
          1,
          1
        ],
        "baseColorTexture": {
          "index": 0,
          "texCoord": 0
        },
        "metallicFactor": 0,
        "roughnessFactor": 1
      }
    }
  ],
  "meshes": [
    {
      "name": "Circle_0",
      "primitives": [
        {
          "attributes": {
            "NORMAL": 1,
            "POSITION": 0,
            "TANGENT": 2,
            "TEXCOORD_0": 3
          },
          "indices": 4,
          "material": 0,
          "mode": 4
        }
      ]
    }
  ],
  "nodes": [
    {
      "children": [
        1
      ],
      "name": "RootNode (gltf orientation matrix)",
      "rotation": [
        -0.70710678118654746,
        -0,
        -0,
        0.70710678118654757
      ]
    },
    {
      "children": [
        2
      ],
      "name": "RootNode (model correction matrix)"
    },
    {
      "children": [
        3,
        5,
        7
      ],
      "name": "Root"
    },
    {
      "children": [
        4
      ],
      "matrix": [
        1,
        0,
        0,
        0,
        0,
        1,
        0,
        0,
        0,
        0,
        1,
        0,
        -0.0047500000000000007,
        0,
        0,
        1
      ],
      "name": "Circle"
    },
    {
      "mesh": 0,
      "name": "Circle_0"
    },
    {
      "children": [
        6
      ],
      "matrix": [
        -0.0028100000000000009,
        1.1409800000000001,
        0.70576000000000005,
        0,
        -1.3048899999999999,
        0.16166000000000003,
        -0.26655000000000001,
        0,
        -0.31173000000000001,
        -0.68700000000000017,
        1.10941,
        0,
        -7.0974599999999999,
        3.3079200000000002,
        10.429730000000001,
        1
      ],
      "name": "Hemi"
    },
    {
      "name": "Hemi"
    },
    {
      "children": [
        8
      ],
      "matrix": [
        0.12254000000000001,
        0.78082000000000007,
        1.0840800000000002,
        0,
        -1.27155,
        0.40222999999999998,
        -0.14598000000000003,
        0,
        -0.40998000000000007,
        -1.01413,
        0.77678000000000003,
        0,
        -5.0266700000000002,
        -12.804209999999999,
        15.36497,
        1
      ],
      "name": "Hemi.001"
    },
    {
      "name": "Hemi.001"
    }
  ],
  "samplers": [
    {
      "magFilter": 9729,
      "minFilter": 9987,
      "wrapS": 10497,
      "wrapT": 10497
    }
  ],
  "scene": 0,
  "scenes": [
    {
      "name": "OSG_Scene",
      "nodes": [
        0
      ]
    }
  ],
  "textures": [
    {
      "sampler": 0,
      "source": 0
    }
  ]
}

