{
  "accessors": [
    {
      "bufferView": 2,
      "componentType": 5126,
      "count": 65532,
      "max": [
        17.046201705932617,
        10.67725944519043,
        17.747238159179688
      ],
      "min": [
        0.46686744689941406,
        0.071960687637329102,
        2.5638952255249023
      ],
      "type": "VEC3"
    },
    {
      "bufferView": 2,
      "byteOffset": 786384,
      "componentType": 5126,
      "count": 65532,
      "max": [
        0.99991708993911743,
        0.99998223781585693,
        0.99985122680664062
      ],
      "min": [
        -0.99997109174728394,
        -0.99999135732650757,
        -0.99999701976776123
      ],
      "type": "VEC3"
    },
    {
      "bufferView": 3,
      "componentType": 5126,
      "count": 65532,
      "max": [
        0.9995429515838623,
        0.9999808669090271,
        0.99976646900177002,
        1
      ],
      "min": [
        -0.99998021125793457,
        -0.99997401237487793,
        -0.99999678134918213,
        -1
      ],
      "type": "VEC4"
    },
    {
      "bufferView": 1,
      "componentType": 5126,
      "count": 65532,
      "max": [
        0.99926799535751343,
        0.99924701452255249
      ],
      "min": [
        0.00073199998587369919,
        0.00075299997115507722
      ],
      "type": "VEC2"
    },
    {
      "bufferView": 0,
      "componentType": 5125,
      "count": 304236,
      "max": [
        65531
      ],
      "min": [
        0
      ],
      "type": "SCALAR"
    },
    {
      "bufferView": 2,
      "byteOffset": 1572768,
      "componentType": 5126,
      "count": 65534,
      "max": [
        11.856622695922852,
        10.69207763671875,
        11.851627349853516
      ],
      "min": [
        0,
        0.30512571334838867,
        4.1701302528381348
      ],
      "type": "VEC3"
    },
    {
      "bufferView": 2,
      "byteOffset": 2359176,
      "componentType": 5126,
      "count": 65534,
      "max": [
        0.99993962049484253,
        0.99999725818634033,
        0.99994325637817383
      ],
      "min": [
        -0.99995726346969604,
        -0.9999854564666748,
        -0.99996185302734375
      ],
      "type": "VEC3"
    },
    {
      "bufferView": 3,
      "byteOffset": 1048512,
      "componentType": 5126,
      "count": 65534,
      "max": [
        0.9996071457862854,
        0.99991756677627563,
        0.9999319314956665,
        1
      ],
      "min": [
        -0.99995386600494385,
        -0.99943286180496216,
        -0.99998146295547485,
        -1
      ],
      "type": "VEC4"
    },
    {
      "bufferView": 1,
      "byteOffset": 524256,
      "componentType": 5126,
      "count": 65534,
      "max": [
        0.99926799535751343,
        0.99924701452255249
      ],
      "min": [
        0.00073199998587369919,
        0.00075299997115507722
      ],
      "type": "VEC2"
    },
    {
      "bufferView": 0,
      "byteOffset": 1216944,
      "componentType": 5125,
      "count": 301221,
      "max": [
        65533
      ],
      "min": [
        0
      ],
      "type": "SCALAR"
    },
    {
      "bufferView": 2,
      "byteOffset": 3145584,
      "componentType": 5126,
      "count": 65532,
      "max": [
        16.136592864990234,
        10.73133659362793,
        21.17241096496582
      ],
      "min": [
        1.9547781944274902,
        0.50876069068908691,
        5.6166219711303711
      ],
      "type": "VEC3"
    },
    {
      "bufferView": 2,
      "byteOffset": 3931968,
      "componentType": 5126,
      "count": 65532,
      "max": [
        0.99962812662124634,
        0.99999797344207764,
        0.99995023012161255
      ],
      "min": [
        -0.99997621774673462,
        -0.99998801946640015,
        -0.99999845027923584
      ],
      "type": "VEC3"
    },
    {
      "bufferView": 3,
      "byteOffset": 2097056,
      "componentType": 5126,
      "count": 65532,
      "max": [
        0.99990743398666382,
        0.99999487400054932,
        0.99973922967910767,
        1
      ],
      "min": [
        -0.99998342990875244,
        -0.99992561340332031,
        -0.99996763467788696,
        -1
      ],
      "type": "VEC4"
    },
    {
      "bufferView": 1,
      "byteOffset": 1048528,
      "componentType": 5126,
      "count": 65532,
      "max": [
        0.99926799535751343,
        0.99924701452255249
      ],
      "min": [
        0.00073199998587369919,
        0.00075299997115507722
      ],
      "type": "VEC2"
    },
    {
      "bufferView": 0,
      "byteOffset": 2421828,
      "componentType": 5125,
      "count": 304392,
      "max": [
        65531
      ],
      "min": [
        0
      ],
      "type": "SCALAR"
    },
    {
      "bufferView": 2,
      "byteOffset": 4718352,
      "componentType": 5126,
      "count": 65532,
      "max": [
        17.540987014770508,
        10.268356323242188,
        23.391681671142578
      ],
      "min": [
        5.8913974761962891,
        0.91669273376464844,
        1.6490106582641602
      ],
      "type": "VEC3"
    },
    {
      "bufferView": 2,
      "byteOffset": 5504736,
      "componentType": 5126,
      "count": 65532,
      "max": [
        0.99992954730987549,
        0.99999797344207764,
        0.99994122982025146
      ],
      "min": [
        -0.99996763467788696,
        -0.99994897842407227,
        -0.99994075298309326
      ],
      "type": "VEC3"
    },
    {
      "bufferView": 3,
      "byteOffset": 3145568,
      "componentType": 5126,
      "count": 65532,
      "max": [
        0.99991977214813232,
        0.99998170137405396,
        0.99968409538269043,
        1
      ],
      "min": [
        -0.99999707937240601,
        -0.99955898523330688,
        -0.99999320507049561,
        -1
      ],
      "type": "VEC4"
    },
    {
      "bufferView": 1,
      "byteOffset": 1572784,
      "componentType": 5126,
      "count": 65532,
      "max": [
        0.99926799535751343,
        0.99924701452255249
      ],
      "min": [
        0.00073199998587369919,
        0.00075299997115507722
      ],
      "type": "VEC2"
    },
    {
      "bufferView": 0,
      "byteOffset": 3639396,
      "componentType": 5125,
      "count": 299433,
      "max": [
        65531
      ],
      "min": [
        0
      ],
      "type": "SCALAR"
    },
    {
      "bufferView": 2,
      "byteOffset": 6291120,
      "componentType": 5126,
      "count": 65532,
      "max": [
        12.100432395935059,
        10.393808364868164,
        23.386924743652344
      ],
      "min": [
        5.4547710418701172,
        0.92158675193786621,
        0.91346836090087891
      ],
      "type": "VEC3"
    },
    {
      "bufferView": 2,
      "byteOffset": 7077504,
      "componentType": 5126,
      "count": 65532,
      "max": [
        0.99989622831344604,
        0.9999958872795105,
        0.9999956488609314
      ],
      "min": [
        -0.99998462200164795,
        -0.99999701976776123,
        -0.99992847442626953
      ],
      "type": "VEC3"
    },
    {
      "bufferView": 3,
      "byteOffset": 4194080,
      "componentType": 5126,
      "count": 65532,
      "max": [
        0.99999070167541504,
        0.99999207258224487,
        0.99999862909317017,
        1
      ],
      "min": [
        -0.99997955560684204,
        -0.99994325637817383,
        -0.99998420476913452,
        -1
      ],
      "type": "VEC4"
    },
    {
      "bufferView": 1,
      "byteOffset": 2097040,
      "componentType": 5126,
      "count": 65532,
      "max": [
        0.99926799535751343,
        0.9991220235824585
      ],
      "min": [
        0.00073199998587369919,
        0.00075299997115507722
      ],
      "type": "VEC2"
    },
    {
      "bufferView": 0,
      "byteOffset": 4837128,
      "componentType": 5125,
      "count": 301446,
      "max": [
        65531
      ],
      "min": [
        0
      ],
      "type": "SCALAR"
    },
    {
      "bufferView": 2,
      "byteOffset": 7863888,
      "componentType": 5126,
      "count": 60764,
      "max": [
        11.826427459716797,
        5.099815845489502,
        17.67919921875
      ],
      "min": [
        5.7070379257202148,
        0,
        0
      ],
      "type": "VEC3"
    },
    {
      "bufferView": 2,
      "byteOffset": 8593056,
      "componentType": 5126,
      "count": 60764,
      "max": [
        0.99987578392028809,
        0.99995934963226318,
        0.99996787309646606
      ],
      "min": [
        -0.99994486570358276,
        -0.9999958872795105,
        -0.99998712539672852
      ],
      "type": "VEC3"
    },
    {
      "bufferView": 3,
      "byteOffset": 5242592,
      "componentType": 5126,
      "count": 60764,
      "max": [
        0.99906086921691895,
        0.99994480609893799,
        0.99986445903778076,
        1
      ],
      "min": [
        -0.99998587369918823,
        -0.99998354911804199,
        -0.9999881386756897,
        -1
      ],
      "type": "VEC4"
    },
    {
      "bufferView": 1,
      "byteOffset": 2621296,
      "componentType": 5126,
      "count": 60764,
      "max": [
        0.99926799535751343,
        0.99924701452255249
      ],
      "min": [
        0.00073199998587369919,
        0.00075299997115507722
      ],
      "type": "VEC2"
    },
    {
      "bufferView": 0,
      "byteOffset": 6042912,
      "componentType": 5125,
      "count": 278883,
      "max": [
        60763
      ],
      "min": [
        0
      ],
      "type": "SCALAR"
    }
  ],
  "asset": {
    "extras": {
      "author": "Geoffrey Marchal (https://sketchfab.com/geoffreymarchal)",
      "license": "CC-BY-4.0 (http://creativecommons.org/licenses/by/4.0/)",
      "source": "https://sketchfab.com/models/a0d6739a36de4535af9eeb11ed7321f9",
      "title": "Flower"
    },
    "generator": "Sketchfab-3.19.5",
    "version": "2.0"
  },
  "bufferViews": [
    {
      "buffer": 0,
      "byteLength": 7158444,
      "byteOffset": 0,
      "name": "floatBufferViews",
      "target": 34963
    },
    {
      "buffer": 0,
      "byteLength": 3107408,
      "byteOffset": 7158444,
      "byteStride": 8,
      "name": "floatBufferViews",
      "target": 34962
    },
    {
      "buffer": 0,
      "byteLength": 9322224,
      "byteOffset": 10265852,
      "byteStride": 12,
      "name": "floatBufferViews",
      "target": 34962
    },
    {
      "buffer": 0,
      "byteLength": 6214816,
      "byteOffset": 19588076,
      "byteStride": 16,
      "name": "floatBufferViews",
      "target": 34962
    }
  ],
  "buffers": [
    {
      "byteLength": 25802892,
      "uri": "scene.bin"
    }
  ],
  "images": [
    {
      "uri": "textures/Material_0_baseColor.jpeg"
    },
    {
      "uri": "textures/Material_0_metallicRoughness.png"
    }
  ],
  "materials": [
    {
      "doubleSided": true,
      "name": "Material_0",
      "pbrMetallicRoughness": {
        "baseColorFactor": [
          1,
          1,
          1,
          1
        ],
        "baseColorTexture": {
          "index": 0,
          "texCoord": 0
        },
        "metallicFactor": 0,
        "metallicRoughnessTexture": {
          "index": 1,
          "texCoord": 0
        },
        "roughnessFactor": 1
      }
    }
  ],
  "meshes": [
    {
      "primitives": [
        {
          "attributes": {
            "NORMAL": 1,
            "POSITION": 0,
            "TANGENT": 2,
            "TEXCOORD_0": 3
          },
          "indices": 4,
          "material": 0,
          "mode": 4
        }
      ]
    },
    {
      "primitives": [
        {
          "attributes": {
            "NORMAL": 6,
            "POSITION": 5,
            "TANGENT": 7,
            "TEXCOORD_0": 8
          },
          "indices": 9,
          "material": 0,
          "mode": 4
        }
      ]
    },
    {
      "primitives": [
        {
          "attributes": {
            "NORMAL": 11,
            "POSITION": 10,
            "TANGENT": 12,
            "TEXCOORD_0": 13
          },
          "indices": 14,
          "material": 0,
          "mode": 4
        }
      ]
    },
    {
      "primitives": [
        {
          "attributes": {
            "NORMAL": 16,
            "POSITION": 15,
            "TANGENT": 17,
            "TEXCOORD_0": 18
          },
          "indices": 19,
          "material": 0,
          "mode": 4
        }
      ]
    },
    {
      "primitives": [
        {
          "attributes": {
            "NORMAL": 21,
            "POSITION": 20,
            "TANGENT": 22,
            "TEXCOORD_0": 23
          },
          "indices": 24,
          "material": 0,
          "mode": 4
        }
      ]
    },
    {
      "primitives": [
        {
          "attributes": {
            "NORMAL": 26,
            "POSITION": 25,
            "TANGENT": 27,
            "TEXCOORD_0": 28
          },
          "indices": 29,
          "material": 0,
          "mode": 4
        }
      ]
    }
  ],
  "nodes": [
    {
      "children": [
        1
      ],
      "name": "RootNode (gltf orientation matrix)",
      "rotation": [
        -0.70710678118654746,
        -0,
        -0,
        0.70710678118654757
      ]
    },
    {
      "children": [
        2
      ],
      "matrix": [
        1,
        0,
        0,
        0,
        0,
        0,
        -1,
        0,
        0,
        1,
        0,
        0,
        0,
        1.0926575660705566,
        1.9672610759735107,
        1
      ],
      "name": "RootNode (model correction matrix)"
    },
    {
      "children": [
        3
      ],
      "matrix": [
        1,
        0,
        0,
        0,
        0,
        1,
        0,
        0,
        0,
        0,
        1,
        0,
        -8.6514692306518555,
        -4.0625557899475098,
        -11.281369209289551,
        1
      ],
      "name": "flower.obj.cleaner.materialmerger.gles"
    },
    {
      "children": [
        4,
        5,
        6,
        7,
        8,
        9
      ],
      "name": ""
    },
    {
      "mesh": 0,
      "name": ""
    },
    {
      "mesh": 1,
      "name": ""
    },
    {
      "mesh": 2,
      "name": ""
    },
    {
      "mesh": 3,
      "name": ""
    },
    {
      "mesh": 4,
      "name": ""
    },
    {
      "mesh": 5,
      "name": ""
    }
  ],
  "samplers": [
    {
      "magFilter": 9729,
      "minFilter": 9987,
      "wrapS": 10497,
      "wrapT": 10497
    },
    {
      "magFilter": 9728,
      "minFilter": 9728,
      "wrapS": 10497,
      "wrapT": 10497
    }
  ],
  "scene": 0,
  "scenes": [
    {
      "name": "OSG_Scene",
      "nodes": [
        0
      ]
    }
  ],
  "textures": [
    {
      "sampler": 0,
      "source": 0
    },
    {
      "sampler": 1,
      "source": 1
    }
  ]
}

